<?xml version="1.0" standalone="no"?>
<!DOCTYPE svg PUBLIC "-//W3C//DTD SVG 20010904//EN"
 "http://www.w3.org/TR/2001/REC-SVG-20010904/DTD/svg10.dtd">
<svg version="1.0" xmlns="http://www.w3.org/2000/svg"
 width="100.000000pt" height="80.000000pt" viewBox="0 0 100.000000 80.000000"
 preserveAspectRatio="xMidYMid meet">
<metadata>
Created by potrace 1.16, written by Peter Selinger 2001-2019
</metadata>
<g transform="translate(0.000000,80.000000) scale(0.100000,-0.100000)"
fill="#000000" stroke="none">
<path d="M0 400 l0 -400 500 0 500 0 0 400 0 400 -500 0 -500 0 0 -400z m848
364 c49 -20 90 -60 113 -109 16 -35 19 -67 19 -253 0 -231 -5 -259 -58 -316
-60 -63 -74 -66 -422 -66 -348 0 -362 3 -422 66 -53 57 -58 85 -58 314 0 229
5 257 58 314 59 63 75 66 420 66 260 0 319 -3 350 -16z"/>
</g>
</svg>
