<svg height="511.99996pt" viewBox="1 1 511.99996 511.99996" width="511.99996pt" xmlns="http://www.w3.org/2000/svg"><path d="m256 302.546875h89.949219c16.914062 0 33.132812-6.71875 45.09375-18.679687 17.078125-17.078126 23.042969-42.339844 15.402343-65.257813l-10.808593-32.429687 14.644531-29.285157c5.671875-11.347656 8.628906-23.867187 8.628906-36.554687 0-30.964844-17.496094-59.269532-45.1875-73.117188l-1.359375-.675781c-14.261719-28.527344-43.417969-46.546875-75.3125-46.546875h-82.101562c-31.894531 0-61.050781 18.019531-75.3125 46.546875l-1.359375.675781c-27.691406 13.847656-45.1875 42.152344-45.1875 73.117188 0 12.691406 2.957031 25.207031 8.632812 36.554687l14.640625 29.289063-10.808593 32.429687c-7.640626 22.914063-1.675782 48.175781 15.40625 65.253907 11.957031 11.960937 28.175781 18.679687 45.089843 18.679687zm0 0" fill="#f2f9f6"/><path d="m174.546875 186.179688h11.636719v58.183593c0 19.28125-15.632813 34.910157-34.910156 34.910157-19.28125 0-34.910157-15.628907-34.910157-34.910157 0-32.132812 26.050781-58.183593 58.183594-58.183593zm0 0" fill="#c0e6d9"/><path d="m325.816406 186.179688h69.820313v58.183593c0 19.28125-15.628907 34.910157-34.910157 34.910157-19.277343 0-34.910156-15.628907-34.910156-34.910157zm0 0" fill="#c0e6d9"/><path d="m256 302.546875-187.402344 51.109375c-40.5 11.042969-68.597656 47.832031-68.597656 89.808594v21.988281c0 25.707031 20.839844 46.546875 46.546875 46.546875h418.90625c25.707031 0 46.546875-20.839844 46.546875-46.546875v-21.988281c0-41.976563-28.097656-78.765625-68.597656-89.808594zm0 0" fill="#f2f9f6"/><path d="m162.910156 442.179688c12.851563 12.855468 33.691406 12.855468 46.542969 0l13.632813-13.632813c6.175781-6.171875 14.546874-9.636719 23.273437-9.636719 18.179687 0 32.914063 14.734375 32.914063 32.910156v27.265626c0 18.179687 14.734374 32.914062 32.914062 32.914062h27.265625c18.175781 0 32.910156-14.734375 32.910156-32.914062v-46.542969c0-8.730469-3.464843-17.101563-9.640625-23.273438l-27.265625-27.265625c-6.171875-6.171875-14.542969-9.640625-23.269531-9.640625h-112.371094c-8.730468 0-17.101562 3.46875-23.273437 9.640625l-13.632813 13.632813c-12.855468 12.851562-12.855468 33.691406 0 46.542969zm0 0" fill="#daefe6"/><path d="m290.117188 437.910156c-5.480469.007813-10.210938 3.835938-11.367188 9.191406-.089844.417969-.191406.832032-.300781 1.242188v.003906l-.039063.132813v.003906l-.011718.03125v.003906l-.027344.101563-.011719.03125v.007812l-.007813.03125-.003906.003906-.027344.09375v.007813l-.007812.027344-.003906.011719-.027344.089843-.003906.007813-.007813.023437-.003906.015625-.007813.023438-.003906.015625-.019531.058593-.003906.019532-.007813.019531-.003906.023437-.007812.015626-.007813.023437v.007813l-.015625.046874-.007812.015626-.007813.023437-.003906.015625-.007813.023438-.003906.015624-.019531.058594-.003907.019532-.015624.039062-.003907.019531-.007812.019531-.011719.035157-.003906.019531-.023438.058594-.003906.019531-.015625.039063v.003906l-.011719.03125-.003906.019531-.007812.023437-.007813.015626-.007813.027343-.003906.011719-.015625.039062-.003906.011719-.007813.027344-.003906.015625-.011718.027344-.003907.011718-.011719.03125-.007812.019532-.007812.023437-.003907.015625-.011719.027344-.015624.046875v.003906l-.015626.039063-.003906.011718-.011718.03125-.003907.007813-.011719.035156-.003906.007813-.027344.078125-.003906.011719-.011718.03125-.003907.007812-.03125.082031v.003907l-.015625.035156-.003906.007812-.027344.082032-.003906.003906-.015625.035156v.007812l-.015625.035157v.007812l-.035156.082031-.015625.039063v.003906l-.050781.125v.003907l-.015626.039062c-.054687.128906-.105468.253906-.160156.382812-2.511718 5.859376-7.304687 10.4375-13.277344 12.671876-6.015624 2.265624-9.054687 8.976562-6.789062 14.992187 2.261719 6.007813 8.960938 9.046875 14.96875 6.796875 14.871094-5.523438 25.886719-18.269531 29.191406-33.785156 1.347656-6.289063-2.660156-12.480469-8.949218-13.828125-.800782-.171875-1.617188-.257813-2.4375-.257813zm0 0" fill="#daefe6"/><path d="m46.546875 512h154.957031c8.28125 0 16.222656-3.289062 22.078125-9.144531 8.613281-8.613281 11.429688-21.449219 7.21875-32.875l-57.796875-143.296875c-5.648437-17.523438-24.082031-27.507813-41.84375-22.664063l-62.5625 17.0625c-40.5 11.046875-68.597656 47.832031-68.597656 89.8125v54.558594c0 25.707031 20.839844 46.546875 46.546875 46.546875zm0 0" fill="#c0e6d9"/><path d="m186.179688 395.636719c12.855468 0 23.273437 10.417969 23.273437 23.273437 0 12.851563-10.417969 23.273438-23.273437 23.273438-12.851563 0-23.269532-10.421875-23.269532-23.273438 0-12.855468 10.417969-23.273437 23.269532-23.273437zm0 0" fill="#70c5aa"/><path d="m465.453125 512h-154.957031c-8.28125 0-16.222656-3.289062-22.078125-9.144531-8.613281-8.613281-11.429688-21.449219-7.21875-32.875l57.796875-143.296875c5.648437-17.523438 24.082031-27.507813 41.84375-22.664063l62.5625 17.0625c40.5 11.046875 68.597656 47.832031 68.597656 89.8125v54.558594c0 25.707031-20.839844 46.546875-46.546875 46.546875zm0 0" fill="#c0e6d9"/><path d="m474.695312 363.207031c-15.550781-15.550781-37.496093-18.816406-49.015624-7.296875-11.523438 11.523438-8.257813 33.46875 7.292968 49.019532 15.550782 15.550781 37.496094 18.816406 49.019532 7.292968 11.519531-11.519531 8.253906-33.46875-7.296876-49.015625zm0 0" fill="#f2f9f6"/><path d="m300.125 423.058594 5.882812 7.738281c15.179688 15.179687 39.789063 15.179687 54.972657 0 7.289062-7.292969 11.382812-17.179687 11.382812-27.488281v-30.945313c-.046875-20.742187-13.851562-38.933593-33.816406-44.5625zm0 0" fill="#70c5aa"/><path d="m271.1875 395.476562-30.519531.128907c-5.179688.019531-10.238281 1.558593-14.554688 4.421875l-22.03125 14.625c-12.195312 8.101562-28.648437 4.777344-36.75-7.421875-2.882812-4.34375-4.421875-9.445313-4.421875-14.664063v-43.476562c0-25.707032 20.839844-46.542969 46.542969-46.542969h93.09375c25.703125 0 46.542969 20.835937 46.542969 46.542969v43.363281c0 14.640625-11.867188 26.511719-26.507813 26.511719-5.234375 0-10.351562-1.550782-14.707031-4.453125l-21.875-14.582031c-4.386719-2.925782-9.542969-4.472657-14.8125-4.453126zm0 0" fill="#f2f9f6"/><path d="m221.089844 302.546875h69.820312c19.277344 0 34.90625 15.628906 34.90625 34.90625 0 19.28125-15.628906 34.910156-34.90625 34.910156h-69.820312c-19.277344 0-34.910156-15.628906-34.910156-34.910156 0-19.277344 15.632812-34.90625 34.910156-34.90625zm0 0" fill="#daefe6"/><path d="m337.453125 232.726562h-11.632813v-69.816406h11.632813c19.28125 0 34.910156 15.628906 34.910156 34.90625 0 19.28125-15.628906 34.910156-34.910156 34.910156zm0 0" fill="#f0a319"/><path d="m174.546875 162.910156h11.632813v69.816406h-11.632813c-19.28125 0-34.910156-15.628906-34.910156-34.910156 0-19.277344 15.628906-34.90625 34.910156-34.90625zm0 0" fill="#f0a319"/><path d="m256 232.726562c25.707031 0 46.546875 20.839844 46.546875 46.546876v46.542968c0 25.707032-20.839844 46.546875-46.546875 46.546875s-46.546875-20.839843-46.546875-46.546875v-46.542968c0-25.707032 20.839844-46.546876 46.546875-46.546876zm0 0" fill="#f0a319"/><path d="m256 69.816406c51.414062 0 93.089844 41.679688 93.089844 93.09375v69.816406c0 51.414063-41.675782 93.089844-93.089844 93.089844s-93.089844-41.675781-93.089844-93.089844v-69.816406c0-51.414062 41.675782-93.09375 93.089844-93.09375zm0 0" fill="#f0a319"/><path d="m162.910156 162.910156v69.816406c.035156 25.933594 10.957032 50.660157 30.09375 68.160157 49.960938 9.625 98.261719-23.074219 107.882813-73.03125 1.167969-6.0625 1.722656-12.226563 1.660156-18.402344v-69.816406c-.039063-25.933594-10.957031-50.660157-30.097656-68.160157-49.957031-9.625-98.257813 23.074219-107.882813 73.035157-1.167968 6.0625-1.722656 12.226562-1.65625 18.398437zm0 0" fill="#f3b553"/><path d="m302.546875 197.816406c0 6.429688-5.210937 11.636719-11.636719 11.636719-6.425781 0-11.636718-5.207031-11.636718-11.636719 0-6.425781 5.210937-11.632812 11.636718-11.632812 6.425782 0 11.636719 5.207031 11.636719 11.632812zm0 0" fill="#593558"/><path d="m232.726562 197.816406c0 6.429688-5.210937 11.636719-11.636718 11.636719-6.425782 0-11.636719-5.207031-11.636719-11.636719 0-6.425781 5.210937-11.632812 11.636719-11.632812 6.425781 0 11.636718 5.207031 11.636718 11.632812zm0 0" fill="#593558"/><path d="m256 256c12.851562 0 23.273438 10.417969 23.273438 23.273438v23.273437c0 12.851563-10.421876 23.273437-23.273438 23.273437s-23.273438-10.421874-23.273438-23.273437v-23.273437c0-12.855469 10.421876-23.273438 23.273438-23.273438zm0 0" fill="#c26765"/><path d="m244.363281 209.453125h23.273438c6.425781 0 11.636719 5.210937 11.636719 11.636719 0 6.425781-5.210938 11.636718-11.636719 11.636718h-23.273438c-6.425781 0-11.636719-5.210937-11.636719-11.636718 0-6.425782 5.210938-11.636719 11.636719-11.636719zm0 0" fill="#f0a319"/><path d="m23.273438 418.910156v-2.824218c0-13.09375 5.199218-25.652344 14.460937-34.910157l17.625-17.625c9.257813-9.257812 21.816406-14.460937 34.90625-14.460937h2.824219c25.707031 0 46.546875 20.839844 46.546875 46.546875v23.273437c0 25.707032-20.839844 46.542969-46.546875 46.542969h-23.273438c-25.703125 0-46.542968-20.839844-46.542968-46.542969zm0 0" fill="#daefe6"/><path d="m69.816406 465.453125h116.363282c12.855468 0 23.273437 10.421875 23.273437 23.273437 0 12.855469-10.417969 23.273438-23.273437 23.273438h-116.363282c-12.851562 0-23.269531-10.417969-23.269531-23.273438 0-12.851562 10.417969-23.273437 23.269531-23.273437zm0 0" fill="#9fd9c5"/><path d="m139.636719 349.089844c0 12.855468-10.417969 23.273437-23.273438 23.273437-12.851562 0-23.273437-10.417969-23.273437-23.273437 0-12.851563 10.421875-23.273438 23.273437-23.273438 12.855469 0 23.273438 10.421875 23.273438 23.273438zm0 0" fill="#f2f9f6"/><path d="m279.273438 442.179688c0 12.855468-10.421876 23.273437-23.273438 23.273437s-23.273438-10.417969-23.273438-23.273437c0-12.851563 10.421876-23.269532 23.273438-23.269532s23.273438 10.417969 23.273438 23.269532zm0 0" fill="#f2f9f6"/><path d="m232.726562 512c0-12.851562 10.421876-23.273438 23.273438-23.273438s23.273438 10.421876 23.273438 23.273438zm0 0" fill="#f2f9f6"/><path d="m256 430.546875c0 6.425781-5.210938 11.632813-11.636719 11.632813s-11.636719-5.207032-11.636719-11.632813c0-6.429687 5.210938-11.636719 11.636719-11.636719s11.636719 5.207032 11.636719 11.636719zm0 0" fill="#70c5aa"/><path d="m256 500.363281c0 6.425781-5.210938 11.636719-11.636719 11.636719s-11.636719-5.210938-11.636719-11.636719 5.210938-11.636719 11.636719-11.636719 11.636719 5.210938 11.636719 11.636719zm0 0" fill="#70c5aa"/><path d="m225.910156 93.089844h60.179688c10.535156 0 20.640625 4.1875 28.089844 11.636718 7.453124 7.449219 11.636718 17.554688 11.636718 28.09375v30.089844c0 12.851563 10.421875 23.269532 23.273438 23.269532h23.273437c12.851563 0 23.273438-10.417969 23.273438-23.269532 0-64.265625-52.097657-116.363281-116.363281-116.363281h-46.546876c-64.265624 0-116.363281 52.097656-116.363281 116.363281 0 12.851563 10.417969 23.269532 23.273438 23.269532h23.273437c12.851563 0 23.273438-10.417969 23.273438-23.269532v-30.089844c0-10.539062 4.183594-20.644531 11.632812-28.09375 7.453125-7.449218 17.558594-11.636718 28.09375-11.636718zm0 0" fill="#f2f9f6"/><path d="m214.273438 251.179688 13.632812-13.632813c6.429688-6.425781 16.847656-6.425781 23.273438 0 6.425781 6.425781 6.425781 16.847656 0 23.273437l-13.632813 13.632813c-6.425781 6.425781-16.84375 6.425781-23.273437 0-6.425782-6.425781-6.425782-16.847656 0-23.273437zm0 0" fill="#f2f9f6"/><path d="m260.820312 237.546875c6.425782-6.425781 16.84375-6.425781 23.273438 0l13.632812 13.632813c6.425782 6.425781 6.425782 16.847656 0 23.273437-6.429687 6.425781-16.847656 6.425781-23.273437 0l-13.632813-13.632813c-6.425781-6.425781-6.425781-16.847656 0-23.273437zm0 0" fill="#f2f9f6"/><g fill="#c0e6d9"><path d="m163.015625 23.273438c-.035156 0-.070313 0-.105469 0-.074218 0-.144531 0-.214844 0l-1.484374.015624c-6.359376.042969-11.476563 5.234376-11.429688 11.589844 0 .050782 0 .097656.003906.148438.125 6.394531 5.339844 11.515625 11.734375 11.53125h.109375c.117188-.003906.234375-.003906.355469-.007813h.058594c.152343 0 .304687-.003906.457031-.003906h.984375l.085937.003906h.257813l.078125.003907h.144531l.082031.003906h.140626l.085937.003906h.128906l.097657.003906h.027343l.074219.003906h.03125l.097656.003907h.128906c.066407.003906.136719.003906.199219.007812h.027344l.089844.003907h.011719l.101562.003906h.019531l.085938.003906h.019531l.101562.003906.019532.003906h.082031l.027344.003907.09375.003906h.007812l.101563.003906h.023437l.082031.003907h.019532l.101562.003906.023438.003906.074218.003906h.03125c.03125 0 .066407.003906.097657.003906h.015625l.082031.003907.035156.003906.074219.003906h.023438c.03125.003907.0625.003907.097656.007813h.023437l.082031.003906h.019532l.101562.007812h.019532l.082031.003907.027343.003906.097657.003906h.003906l.09375.007813h.027344l.082031.003906.019531.003906.097657.003906.027343.003907.078125.003906h.023438l.097656.007813.019531.003906.082031.003906.027344.003906.09375.003906h.003906l.097657.007813.03125.003906.078125.003907.023437.003906.09375.003906.03125.003906.070313.003906.03125.003907.09375.007812h.019531l.078125.007813.03125.003906.078125.003906.023437.003906.09375.007813h.03125l.070313.007813.03125.003906.09375.007812h.027344l.105469.011719.089843.007813h.019531l.078126.007812.105468.011719h.027344c.03125.003906.0625.007812.09375.011719h.035156l.066406.007812.03125.003906.089844.007813.03125.003906.066406.007813.039063.003906.066406.003906.050781.007812.070313.003907.035156.003906.0625.007813.035157.003906c.03125.003906.0625.007812.089843.007812l.03125.003906.066407.007813.039062.003906.089844.011719h.027344l.066406.007812.039062.003907.070313.007812.027343.003907.085938.011718.042969.003906.058593.007813.035157.003906.089843.007813.035157.003906.0625.007812.039062.007813.070313.007813.046875.003906.0625.007812.042969.003906.058593.007813.039063.007813.085937.007812.039063.007812.054687.007813.042969.003906.085938.011719.039062.003906.054688.007813.042968.003906.0625.007813.054688.007812.0625.007812.042968.007813.058594.007813.039063.003906.082031.011718.042969.007813.054687.003906.042969.007813.066406.007812.058594.007813.054687.007812.042969.007813.0625.007812.035157.003906.082031.011719.039062.007813.054688.007812.042969.007813.082031.011719.046875.003906.046875.007812.050781.007813.046875.007812.078125.011719.046875.007812.050781.007813.042969.003906.078125.011719.046875.007812.054687.007813.039063.007813.054687.007812.046876.007812c.027343.003907.050781.007813.078124.011719l.09375.015625.050782.007813.074218.011719.046876.007812.050781.011719.039062.003906.082031.015625.101563.015625.042969.007813.046875.007812.066406.011719.058594.007812.046875.011719.054687.007812.039063.007813.085937.011719.042969.007812.050781.011719.039063.003906c.0625.011719.121094.023438.183594.035157l.035156.007812.054687.007812.03125.003907.105469.019531.027344.007812.058594.007813.03125.007813.121093.023437h.007813l.0625.011719.027344.003906c.066406.011719.132812.027344.199218.039062l.019532.003907.066406.011719.011718.003906.128907.023437.015625.003907.0625.011718.023437.003906c.066407.011719.132813.027344.199219.039063l.023438.003906.0625.015625c.046874.007813.097656.019532.140624.027344l.015626.003906.070312.011719.003906.003906.210938.042969.019531.003906.203125.042969.019531.003906.066407.011719.007812.003906.128906.027344.015625.003906.066407.011719.019531.003906c.066406.015625.136719.03125.203125.042969l.015625.003906c.070312.015625.136719.03125.207031.046875l.011719.003907.070312.011718v.003906l.144531.03125h.003907l.070312.015626.011719.003906c.070312.015625.140625.03125.210938.046875l.007812.003906.214844.046875.007812.003906.070313.015625.007812.003907c.070313.015624.140625.03125.214844.050781h.003906c.070313.015625.144531.035156.214844.050781h.007813c.171874.042969.34375.085938.511718.128906h.003906c.070313.015625.144532.035156.214844.054688h.003906c19.472657 4.964844 35.871094 18.0625 45.011719 35.957031 2.941407 5.714844 9.957031 7.96875 15.671875 5.03125 5.707032-2.9375 7.960938-9.9375 5.039063-15.652344-15.808594-31.128906-47.761719-50.738281-82.671875-50.746093-.046875 0-.089844 0-.136719 0zm0 0"/><path d="m151.273438 93.089844h23.273437c6.425781 0 11.632813 5.210937 11.632813 11.636718 0 6.425782-5.207032 11.636719-11.632813 11.636719h-23.273437c-6.425782 0-11.636719-5.210937-11.636719-11.636719 0-6.425781 5.210937-11.636718 11.636719-11.636718zm0 0"/><path d="m151.273438 139.636719h23.273437c6.425781 0 11.632813 5.210937 11.632813 11.636719 0 6.425781-5.207032 11.636718-11.632813 11.636718h-23.273437c-6.425782 0-11.636719-5.210937-11.636719-11.636718 0-6.425782 5.210937-11.636719 11.636719-11.636719zm0 0"/><path d="m337.453125 116.363281h23.273437c6.425782 0 11.636719 5.210938 11.636719 11.636719s-5.210937 11.636719-11.636719 11.636719h-23.273437c-6.425781 0-11.632813-5.210938-11.632813-11.636719-.003906-6.425781 5.207032-11.636719 11.632813-11.636719zm0 0"/><path d="m384 162.910156h-34.910156v-30.089844c0-34.792968-28.203125-63-63-63h-60.179688c-11.339844 0-22.46875 3.058594-32.214844 8.855469-5.519531 3.285157-7.335937 10.429688-4.050781 15.949219 3.289063 5.523438 10.429688 7.339844 15.953125 4.054688 3.222656-1.921876 6.703125-3.371094 10.332032-4.3125l.003906-.003907c.058594-.015625.117187-.027343.175781-.042969.019531-.003906.039063-.011718.058594-.015624h.003906l.167969-.042969h.007812c.078125-.019531.152344-.039063.230469-.058594h.007813c.054687-.015625.113281-.027344.167968-.042969h.007813l.050781-.011718.011719-.003907.164062-.039062h.011719l.050781-.011719.011719-.003906c.054688-.011719.109375-.023438.164062-.039063h.011719c.015625-.003906.035157-.007812.050781-.011719.039063-.011718.078126-.019531.117188-.027343h.003906c.019532-.003907.035156-.007813.054688-.011719l.011718-.003906.160157-.03125.015625-.003906c.015625-.003907.03125-.007813.050781-.011719l.011719-.003907c.054687-.011718.109375-.019531.160156-.03125l.015625-.003906c.019531-.003906.035156-.007812.050781-.011718h.011719l.101563-.023438.011718-.003906.046875-.007813c.007813 0 .015625 0 .023438-.003906l.046875-.007813.011718-.003906.09375-.019531.019532-.003906c.015625 0 .027344-.003907.042968-.007813l.027344-.003906c.050782-.011719.097656-.019531.148438-.03125l.019531-.003906.070313-.011719.089843-.015625.015625-.003906.070313-.011719c.015625-.003906.027343-.007813.042969-.007813l.023437-.003906c.027344-.007812.054687-.011718.085937-.015625l.019532-.003906c.015625-.003906.03125-.003906.046875-.007813l.070312-.011718.015625-.003906c.03125-.007813.058594-.011719.089844-.015626l.019531-.003906.070313-.011718.089844-.015626.015624-.003906c.015626 0 .027344-.003906.042969-.003906l.027344-.007812c.015625 0 .03125-.003907.042969-.003907l.027344-.003906.074218-.015625.027344-.003906.042969-.007813.027343-.003906.042969-.007813.03125-.003906c.023438-.003906.046875-.003906.070313-.011718l.03125-.003907.042968-.007812.027344-.003907.039063-.003906c.023437-.003906.042969-.007812.0625-.011718.015625 0 .027343 0 .039062-.003907l.035157-.003906c.011718-.003906.027343-.003906.039062-.007813.011719 0 .019531 0 .03125-.003906l.066406-.007812.035156-.007813c.011719 0 .027344 0 .039063-.003906l.035156-.003906c.011719-.003907.023438-.003907.039063-.007813l.03125-.003906c.023437 0 .042968-.003906.066406-.007812l.035156-.003907c.011719-.003906.027344-.003906.039063-.007812l.03125-.003907c.015625 0 .027343-.003906.039062-.003906l.039063-.003906.0625-.011719.035156-.003906c.011719 0 .023438-.003906.035156-.003906l.039063-.003907.035156-.003906.066406-.011718.03125-.003907.042969-.003906.03125-.003906c.015625-.003907.03125-.003907.050781-.003907.011719-.003906.023438-.003906.035157-.007812.019531 0 .035156-.003906.050781-.003906l.035156-.003906.039063-.003907.035156-.003906c.019531-.003906.035156-.007813.054687-.007813.011719-.003906.027344-.003906.042969-.003906l.039062-.003906.035157-.007812.042969-.003907.03125-.003906c.023437 0 .042968-.003906.066406-.007813h.03125l.042968-.003906.03125-.007812.050782-.003906.03125-.003907c.019531 0 .039062-.003906.058594-.003906.011718-.003906.023437-.003906.03125-.003906.015624 0 .03125-.003907.046874-.003907.007813-.003906.019532-.003906.027344-.003906.023438-.003906.042969-.003906.066406-.007812h.023438c.019531-.003906.035156-.003906.054688-.007813h.027343c.019531 0 .035157-.003906.050781-.007812h.027344c.023438-.003907.046875-.003907.066406-.007813h.027344l.050782-.007812h.027343c.019531-.003906.035157-.003906.050781-.003906l.023438-.003907c.023438 0 .046875-.003906.070312-.003906l.027344-.003906.046875-.003907h.027344c.023437-.003906.042969-.003906.0625-.007812h.019531c.023438 0 .042969-.003906.066406-.003906l.027344-.003906.046875-.003907h.027344c.023437-.003906.046875-.003906.070313-.007812h.019531l.054687-.003907h.03125l.046875-.007812h.027344l.070313-.003906.027343-.003906c.015625 0 .03125 0 .046875-.003907h.03125l.050782-.003906h.019531l.074219-.003906.023437-.003907h.050781c.007813-.003906.019532-.003906.027344-.003906l.070312-.003906h.015626c.019531-.003906.039062-.003906.0625-.003906h.023437c.019531-.003906.035156-.003906.054687-.003906h.019532l.074218-.007813h.019532.058594l.023437-.003906h.058594l.015625-.003907c.027344 0 .050781 0 .074218-.003906h.019532c.019531 0 .039062 0 .058594-.003906h.023437c.050781 0 .097656-.003906.148437-.003906h.023438c.019531-.003906.039062-.003906.054688-.003906h.023437c.023437 0 .046875 0 .074219-.003907h.015625c.019531 0 .039062 0 .058593-.003906h.023438.058594.019531c.023437 0 .050781-.003906.074219-.003906h.019531.054687.023438c.023438-.003907.046875-.003907.070312-.003907h.007813.074219.023437c.019531 0 .035157-.003906.054688-.003906h.023437.074219.011719.066406.019531c.019531 0 .039063-.003906.058594-.003906h.019531.074219 60.605469c21.941406 0 39.726562 17.785156 39.730468 39.726562v30.089844c0 12.851563 10.417969 23.273438 23.269532 23.273438h34.007812v-.042969c.535156.035156.902344.042969.902344.042969 6.425781 0 11.636719-5.210938 11.636719-11.636719 0-6.429687-5.210938-11.636719-11.636719-11.636719zm0 0"/><path d="m327.332031 6.613281c-6.425781-.003906-11.636719 5.207031-11.640625 11.632813 0 4.550781 2.644532 8.683594 6.777344 10.582031 12.605469 5.804687 22.859375 15.722656 29.078125 28.125 2.253906 4.503906 5.90625 8.15625 10.410156 10.410156l1.355469.675781c19.863281 9.847657 32.398438 30.128907 32.324219 52.300782-.011719 9.074218-2.125 18.027344-6.171875 26.148437l-14.644532 29.285157c-2.761718 5.519531-3.214843 11.910156-1.261718 17.765624l10.808594 32.429688c7.074218 21.21875-4.394532 44.152344-25.613282 51.226562-3.691406 1.230469-7.546875 1.921876-11.4375 2.054688-6.421875.214844-11.453125 5.597656-11.238281 12.019531.210937 6.269531 5.351563 11.242188 11.625 11.246094.132813 0 .265625-.003906.398437-.007813 1.574219-.050781 3.140626-.164062 4.699219-.332031l.09375-.007812v-.003907l.089844-.007812h.007813l.085937-.011719h.007813c.027343-.003906.058593-.007812.085937-.011719h.007813l.085937-.007812.011719-.003906.082031-.007813h.011719l.082031-.011719h.007813l.085937-.011718h.007813l.085937-.011719h.003906l.089844-.011719h.003906c.242188-.03125.484375-.0625.726563-.09375h.015625l.078125-.011718.015625-.003907.070312-.007812.027344-.003907.0625-.007812.03125-.007812.058594-.007813.039062-.003906.054688-.007813.039062-.003906.058594-.007812.035156-.007813.058594-.007813.035156-.003906.058594-.007812.039063-.007813.054687-.007812.039063-.003907.054687-.011718.042969-.003906.050781-.007813.042969-.007813.050781-.007812.046875-.003906.140625-.023438.050781-.007812.042969-.007813.050781-.007812.046875-.003907.050781-.011718.042969-.003906.050781-.011719.042969-.003907.058594-.011718.035156-.003906c.097657-.015626.191407-.03125.285157-.046876l.015624-.003906.078126-.011718.023437-.003907.074219-.011719.027344-.007812.066406-.011719.03125-.003906.0625-.011719.03125-.003906.066406-.011719.027344-.003906.070312-.015625.09375-.015625.027344-.003906.066406-.011719.027344-.007812.164062-.027344.023438-.007813.09375-.015625.074219-.011718.023437-.003907.074219-.015625.097656-.019531h.015625l.082032-.015625.011718-.003906.085938-.015625.011718-.003907c.347657-.066406.699219-.136718 1.046876-.210937h.003906c.027344-.007813.0625-.015625.089844-.019531l.007812-.003906c.0625-.011719.125-.023438.1875-.039063.03125-.007813.0625-.011719.09375-.019531h.003906l.089844-.019532.003906-.003906c8.589844-1.882812 16.699219-5.519531 23.816406-10.6875.476563-.34375.949219-.695312 1.414063-1.054687l.078125-.058594v-.003906l.074219-.054688.007812-.007812.070313-.050781.007812-.007813c.023438-.019531.042969-.035156.066406-.050781l.011719-.011719.066407-.050781.011718-.007813.0625-.050781.011719-.007812.066406-.054688.011719-.007812c.019531-.015626.042969-.035157.066406-.050782l.007813-.007812c.023437-.019532.046875-.035156.070312-.054688l.007813-.003906.066406-.054688.011719-.007812.070312-.054688.003907-.003906.070312-.058594.003906-.003906c.207032-.164062.40625-.324218.609375-.492187l.007813-.007813.066406-.054687.007812-.003907.070313-.058593.007813-.003907.066406-.058593.007812-.003907.066406-.054687.015626-.015625.058593-.046875.015625-.011719c.019532-.019531.039063-.035156.058594-.050781l.015625-.015625c.019531-.015625.039063-.03125.058594-.046875l.015625-.015625.054687-.042969.023438-.019531.054687-.046875.019532-.015625.054687-.046875.015625-.015625.058594-.046875.015625-.015625.058593-.046875.015626-.015625c.023437-.019531.039062-.035156.0625-.050781l.011718-.011719.0625-.050781.011719-.011719c.019531-.019531.042969-.035156.0625-.054688l.011719-.011718c.019531-.015625.042968-.035156.0625-.054688l.011718-.007812c.148438-.125.296876-.253906.441407-.382813l.007812-.007812.066407-.058594.015624-.011719.054688-.050781.023438-.019531.050781-.042969.019531-.019531.050781-.046875.023438-.019531.050781-.042969.023438-.023438.046874-.042969.027344-.023437.046875-.039063.023438-.023437.046875-.042969.027344-.023437.042968-.039063.027344-.027344.046875-.039062.027344-.023438.042969-.042968.027343-.023438.046875-.042968.027344-.019532.042969-.042968.027343-.023438.046876-.042969.023437-.023437.050781-.046875.019532-.019531.054687-.050782.019531-.011718.058594-.058594.011719-.007813.058593-.058593.011719-.007813c.074219-.070313.144531-.132813.214844-.203125l.011719-.007812c.019531-.019532.039062-.039063.058594-.054688l.070312-.070312.023438-.019532.046874-.042968.027344-.027344.042969-.039063.027344-.027343.042969-.039063.03125-.027344.039062-.042969.027344-.023437.042968-.042969.03125-.027344.066407-.066406.042969-.039062.03125-.03125.039062-.035156.066406-.066407.035156-.03125.136719-.136719.039063-.035156.03125-.03125.035156-.039062.035156-.03125.039063-.035156.03125-.03125.035156-.039063.03125-.03125.042969-.039063.070312-.070312.023438-.027344.054687-.050781.015625-.015625c.023438-.023438.046875-.046875.070313-.070312 17.082031-17.078126 23.042969-42.339844 15.402343-65.253907 0 0-.035156-.117187-.109374-.328125l-.011719-.039062c-.039063-.117188-.085938-.261719-.144531-.433594v-.003906l-.023438-.0625v-.003906c-.050781-.15625-.109375-.332032-.175781-.523438-.144531-.441406-.324219-.980469-.53125-1.597656v-.003906c-.101563-.304688-.210938-.632813-.324219-.976563l-.007812-.023437c-.101563-.296876-.203126-.605469-.3125-.929688v-.003906c-.011719-.03125-.023438-.066406-.035157-.097656l-.011719-.042969c-.253906-.753907-.523437-1.574219-.8125-2.4375l-.007812-.019531c-.070312-.214844-.144531-.429688-.214844-.648438l-.019531-.050781c-.03125-.097657-.0625-.1875-.09375-.285157l-.0625-.1875c-.015625-.046874-.03125-.097656-.046875-.148437l-.011719-.035156c-.136719-.40625-.273437-.820313-.414062-1.242188l-.003907-.003906c-.015624-.046875-.027343-.089844-.042968-.132813-.078125-.234374-.15625-.472656-.234375-.710937l-.007813-.011719c-.21875-.660156-.441406-1.332031-.671875-2.015625l-.003906-.015625c-.007813-.019531-.011719-.039062-.019531-.054687l-.015625-.050781c-.007813-.019532-.011719-.039063-.019531-.054688l-.007813-.027344c-.332031-.992187-.667969-2.003906-1.003906-3.011718l-.046875-.140626c-.320313-.964843-.644532-1.933593-.960938-2.882812v-.003906c-.164062-.496094-.328125-.984375-.492187-1.46875l-.007813-.027344c-.027344-.082031-.054687-.160156-.082031-.242188l-.015625-.050781c-.128906-.382812-.253906-.765625-.378906-1.140625-.3125-.925781-.609375-1.828125-.894532-2.679687l-.023437-.070313c-.144531-.429687-.285156-.847656-.417969-1.253906l-.015625-.042969c-.128906-.394531-.257812-.777343-.378906-1.144531-.25-.742188-.476563-1.425781-.679687-2.03125l-.015626-.050781c-.050781-.148438-.097656-.289063-.140624-.425781l-.007813-.023438c-.023437-.066406-.046875-.132812-.066406-.199219l-.011719-.03125c-.019531-.058593-.039062-.117187-.058594-.171875v-.011718c-.089844-.265626-.171875-.507813-.246094-.730469-.035156-.109375-.070312-.210938-.101562-.308594l-.003906-.007813c-.097656-.292968-.175782-.53125-.234375-.710937h-.003907c-.058593-.179687-.097656-.292969-.113281-.339844l-.007812-.023437 14.644531-29.285156c20.1875-40.382813 3.820312-89.484376-36.558594-109.671876l-.058594-.03125c-.035156-.019531-.089843-.042968-.152343-.078124-.0625-.03125-.136719-.066407-.21875-.105469-.078125-.042969-.164063-.085938-.25-.125-.082031-.042969-.167969-.085938-.246094-.125l-.21875-.109375-.152344-.078125-.058593-.027344-.0625-.125-.03125-.066406-.019532-.03125-.03125-.066407-.015625-.027343-.039062-.078125-.007813-.019532-.050781-.09375-.007813-.019531-.039062-.078125-.015625-.023437c-.011719-.023438-.023437-.046875-.035156-.070313l-.011719-.027344-.039062-.070312-.011719-.027344-.097657-.1875-.011718-.027344-.035156-.070312-.015626-.027344-.039062-.070312-.011719-.023438c-.035156-.066406-.066406-.128906-.097656-.191406l-.011719-.015625c-.011718-.027344-.027344-.054687-.039062-.078125l-.015625-.027344c-.011719-.023437-.023438-.046875-.035157-.066406l-.015624-.03125c-.011719-.023438-.027344-.050781-.039063-.074219l-.007813-.019531c-.035156-.0625-.070312-.125-.101562-.191406l-.011719-.015625-.039062-.078125-.015625-.023438-.042969-.078125-.007813-.015625c-.035156-.0625-.070312-.128906-.105468-.195312l-.003906-.007813-.046876-.082031-.011718-.023438-.039063-.074218-.011719-.019532c-.050781-.097656-.101562-.191406-.15625-.289062l-.007812-.015625c-.015625-.027344-.027344-.050781-.042969-.078125l-.011719-.019531-.042968-.082031-.007813-.011719c-.035156-.066407-.070312-.128907-.105469-.191407l-.007812-.015624-.046875-.082032-.007813-.015625-.046874-.078125-.007813-.019531c-.054687-.09375-.105469-.1875-.160156-.285156l-.007813-.015625c-.015625-.027344-.03125-.050782-.046875-.078125l-.007812-.019531-.050781-.085938-.003907-.003906c-.035156-.066406-.074219-.128906-.109375-.195313l-.003906-.003906-.050781-.089844-.007813-.015625c-.015625-.027344-.03125-.054687-.046875-.082031l-.007812-.011719c-.054688-.097656-.109375-.191406-.164063-.289062l-.007812-.007813-.050782-.085937-.003906-.011719-.050781-.085937-.003906-.007813c-.039063-.0625-.078125-.128906-.113281-.191406l-.003907-.007813c-.019531-.027344-.035156-.058594-.050781-.085937l-.007812-.011719c-.019532-.027344-.035157-.058594-.050782-.089844l-.003906-.003906c-.058594-.097656-.113281-.191406-.171875-.289062l-.003906-.007813-.050781-.082031-.007813-.015625c-.058594-.09375-.113281-.191407-.171875-.285157-.019531-.03125-.039062-.0625-.054688-.089843l-.007812-.011719-.054688-.089844v-.003906l-.117187-.191406-.003906-.003906-.050781-.085938-.011719-.015625-.046875-.082031-.007813-.007813c-.058593-.097656-.113281-.1875-.171875-.28125l-.007812-.011719-.050782-.082031-.007812-.011719-.054688-.089843-.003906-.003907c-.039062-.0625-.078125-.125-.117187-.1875l-.003907-.003906c-.015624-.027344-.035156-.058594-.054687-.089844l-.007813-.011718c-.015624-.027344-.035156-.054688-.050781-.082032l-.007812-.011718c-.058594-.09375-.117188-.183594-.175781-.277344l-.003907-.003906-.058593-.089844-.003907-.007812-.058593-.089844c-.039063-.0625-.082032-.128906-.121094-.191406l-.003906-.003907c-.015626-.027343-.035157-.054687-.054688-.085937l-.007812-.011719c-.015626-.027344-.035157-.054687-.054688-.082031l-.003906-.007813c-.058594-.09375-.117188-.183593-.179688-.277343l-.007812-.011719-.050782-.078125-.007812-.015625c-.019531-.027344-.039062-.054688-.058594-.082031l-.003906-.003907c-.039062-.0625-.078125-.125-.121094-.1875l-.003906-.003906c-.019531-.03125-.035156-.058594-.054688-.085937l-.007812-.011719c-.019531-.027344-.039062-.054688-.054688-.082031l-.003906-.007813c-.0625-.089844-.125-.183594-.183594-.273437l-.007812-.011719c-.019531-.027344-.035156-.050781-.054688-.078125l-.007812-.015625c-.019531-.027344-.039062-.058594-.058594-.085938-.042968-.0625-.085937-.125-.125-.183593l-.003906-.007813-.054688-.082031-.011718-.011719-.058594-.085937c-.0625-.09375-.125-.183594-.1875-.273438l-.007812-.011719-.058594-.082031-.003906-.007812c-.0625-.089844-.125-.179688-.1875-.269532l-.003907-.007812c-.019531-.027344-.039062-.054688-.058593-.082032l-.007813-.011718c-.015625-.027344-.035156-.054688-.054687-.078125l-.007813-.011719c-.039063-.058594-.082031-.117188-.125-.175781l-.011719-.015625-.050781-.070313-.011719-.019531c-.015625-.023438-.035156-.050781-.050781-.070312l-.011719-.015626-.058594-.085937v-.003906l-.066406-.089844-.0625-.085937-.007812-.011719-.054688-.074219-.011718-.019531-.050782-.070313-.011718-.015625c-.039063-.058593-.082032-.117187-.125-.171875l-.011719-.015625-.046875-.070312-.019532-.023438-.046874-.066406-.015626-.019531-.058593-.078125v-.003907l-.066407-.089843-.007812-.011719c-.019531-.023438-.035156-.046875-.054688-.070312l-.015624-.023438-.046876-.0625-.015624-.023438-.046876-.0625-.015624-.023437c-.042969-.058594-.085938-.113281-.125-.167969l-.015626-.019531-.050781-.066406-.015625-.023438-.046875-.0625-.015625-.023437c-.019531-.027344-.039062-.050782-.058594-.078125l-.003906-.003907-.0625-.085937-.015625-.015625c-.015625-.023438-.03125-.046875-.046875-.066406l-.019531-.027344-.046875-.058594-.019531-.027344-.050781-.066406-.007813-.011718c-.023437-.03125-.042969-.058594-.066406-.085938l-.003907-.003906-.058593-.082032-.015625-.019531-.046875-.0625-.019531-.023437-.046876-.0625-.019531-.023438-.058593-.074218-.003907-.007813-.0625-.082031-.015625-.019532-.046875-.0625-.023437-.027343-.042969-.054688-.019531-.027343-.046875-.0625-.015625-.019532-.066406-.082031-.007813-.011719-.054687-.070312-.019532-.027344-.042968-.054688-.023438-.027343c-.015625-.019531-.027344-.039063-.046875-.058594l-.015625-.023437-.0625-.078126-.003906-.003906-.0625-.082031-.019532-.023437c-.015624-.019532-.03125-.039063-.046874-.058594l-.019532-.023438-.042968-.058594-.023438-.027343c-.015625-.019531-.03125-.042969-.050781-.0625l-.011719-.019531c-.023438-.027344-.042969-.050782-.066406-.078126l-.015625-.019531c-.015625-.019531-.03125-.042969-.050781-.0625l-.019532-.023437-.042968-.058594-.023438-.027344-.042969-.054687-.023437-.027344-.058594-.074219-.015625-.019531c-.015625-.023437-.035156-.042969-.050781-.0625l-.027344-.03125-.039062-.050781-.027344-.035156-.039063-.046876-.023437-.03125c-.015625-.015624-.03125-.035156-.042969-.054687l-.023437-.027344c-.019532-.023437-.042969-.050781-.0625-.074219l-.019532-.027343-.042968-.050781-.027344-.035157-.039063-.046875-.027343-.03125-.039063-.046875-.027344-.035156-.078125-.09375-.050781-.0625-.023437-.027344-.039063-.050781-.027344-.03125-.039062-.046875-.027344-.03125-.050781-.058594-.078125-.097656-.027344-.027344-.039063-.050781-.03125-.035156-.03125-.042969-.035156-.035156-.035156-.046875-.027344-.03125c-.023437-.023438-.042968-.050782-.0625-.074219l-.023437-.027344-.042969-.050781-.027344-.03125-.039062-.046875-.03125-.035156-.035156-.042969-.027344-.035156c-.019532-.015625-.035156-.035156-.050782-.054688l-.019531-.023437-.0625-.074219-.027343-.03125-.035157-.042969-.070312-.078125-.03125-.035156-.035157-.042969-.03125-.035156c-.019531-.023437-.039062-.046875-.0625-.070313l-.03125-.039062-.03125-.035156-.039062-.042969-.03125-.039063-.03125-.035156-.070312-.078125-.03125-.039062-.074219-.082031-.019531-.023438-.039063-.042969-.03125-.035156-.035156-.039063-.03125-.035156-.035157-.042968-.03125-.035157-.035156-.039062-.0625-.070313-.035156-.039062-.03125-.035156-.035156-.039063-.03125-.035156-.039063-.042969-.03125-.035156-.035156-.039063-.027344-.03125-.074219-.082031-.027343-.03125-.035157-.039062-.03125-.035157c-.011718-.011719-.023437-.027343-.035156-.039062l-.035156-.039063-.035156-.035156-.03125-.039062-.070313-.074219-.027343-.03125-.035157-.039063-.03125-.035156-.039062-.042969-.027344-.03125-.039063-.042969-.03125-.03125-.039062-.042968c-.011719-.015625-.023438-.027344-.035156-.042969l-.058594-.0625-.035156-.035156-.035156-.039063-.03125-.035156c-.015626-.015625-.027344-.027344-.039063-.042969l-.027344-.027343-.042969-.046876-.023437-.027343-.082031-.089844-.023438-.019531-.039062-.046875-.027344-.027344-.039062-.042969-.027344-.027344-.042969-.046874-.023437-.023438c-.050782-.054688-.101563-.105469-.152344-.160156l-.023438-.027344-.042968-.042969-.019532-.023437-.046875-.050782-.070312-.070312-.011719-.015625c-.054688-.058594-.109375-.113281-.164062-.171875l-.015626-.019531-.136718-.136719c-.054688-.058594-.109375-.117188-.164063-.171875l-.0625-.0625-.019531-.023437-.046875-.050782-.019531-.015625c-.015625-.019531-.03125-.035156-.050782-.054687l-.003906-.007813c-.058594-.058593-.117187-.117187-.175781-.175781l-.015625-.015625-.046875-.050781-.023437-.023438c-.015626-.015625-.03125-.03125-.046876-.046875l-.019531-.019531c-.054687-.054688-.105469-.109375-.160156-.164062l-.085937-.085938c-.019532-.015625-.035157-.03125-.050782-.050781l-.019531-.019531c-.074219-.074219-.152344-.152344-.230469-.230469l-.144531-.144531c-.058594-.058594-.121094-.121094-.179687-.179688l-.011719-.007812-.121094-.121094-.011719-.007813c-.082031-.082031-.164062-.164062-.246094-.242187l-.007812-.011719-.058594-.054687-.007812-.007813c-.082032-.082031-.167969-.164063-.25-.242187l-.007813-.007813-.058593-.054687-.070313-.070313c-.082031-.078125-.167969-.160156-.253906-.242187l-.011719-.011719-.054688-.050781-.011718-.011719-.058594-.054688v-.003906c-.066406-.058594-.132812-.121094-.195312-.179687l-.0625-.0625-.011719-.007813-.058594-.054687v-.003907c-.066406-.0625-.128906-.121093-.195313-.179687l-.003906-.003906-.058594-.054688-.011718-.011719-.058594-.054687-.007812-.007813c-.085938-.078125-.167969-.15625-.257813-.234375l-.003906-.007812-.0625-.054688-.007813-.007812-.0625-.054688v-.003906c-.066406-.058594-.132812-.121094-.195312-.179688l-.003906-.003906-.058594-.050781-.011719-.011719-.0625-.054687v-.003907c-.089844-.078124-.175781-.15625-.265625-.234374l-.003906-.007813c-.019532-.015625-.042969-.039063-.0625-.054687l-.007813-.007813c-.089843-.078125-.175781-.15625-.265625-.234375l-.0625-.058594-.007812-.007812c-.019532-.019532-.039063-.035156-.0625-.054688l-.007813-.003906c-.085937-.078125-.171875-.15625-.261719-.230469l-.003906-.007812-.066406-.054688v-.003906c-.113281-.097656-.222656-.195313-.339844-.292969v-.003906c-.113281-.097656-.222656-.191406-.335937-.289062l-.007813-.003907-.0625-.054687-.011718-.007813c-.085938-.078125-.175782-.152343-.261719-.226562l-.007813-.003907c-.019531-.019531-.039062-.035156-.0625-.050781l-.007812-.011719c-.023438-.015624-.042969-.035156-.0625-.050781l-.003906-.003906c-.066407-.058594-.136719-.113281-.203126-.171875h-.003906c-.019531-.019531-.039062-.035156-.058594-.050781l-.015624-.011719-.058594-.050781-.015625-.011719c-.085938-.070312-.167969-.140625-.257813-.210938l-.015625-.015624c-.015625-.015626-.03125-.027344-.050781-.042969l-.023438-.019531-.054687-.046876-.011719-.007812c-.0625-.050781-.128906-.105469-.191406-.15625l-.011719-.007812c-.019531-.015626-.039062-.035157-.058593-.050782l-.015626-.011718c-.019531-.015626-.039062-.03125-.058593-.050782l-.007813-.003906c-.09375-.074219-.179687-.144531-.269531-.21875l-.011719-.007812-.058594-.050782-.015624-.007812-.0625-.050782v-.003906l-.203126-.160156-.007812-.007812-.078125-.0625-.058594-.042969-.011719-.011719c-.066406-.050781-.128906-.101562-.199218-.15625l-.003906-.003906-.078126-.0625-.054687-.042969-.019531-.015625c-.085938-.066406-.171875-.132812-.257813-.203125l-.019531-.015625-.058594-.042969-.015625-.011719-.058593-.046874-.015626-.011719c-.0625-.046875-.125-.097657-.1875-.144531l-.019531-.015626-.050781-.039062-.027344-.019531-.050781-.042969-.023437-.015625-.054688-.042969-.011719-.007812-.128906-.101563h-.003906l-.078125-.058593-.054688-.042969-.023437-.015625-.054688-.042969-.015625-.011719c-.066406-.050781-.128906-.097656-.195312-.148437l-.011719-.007813-.078125-.0625-.054688-.042968-.023437-.015626c-.085937-.066406-.171875-.128906-.257813-.191406l-.023437-.019531-.054687-.039063-.023438-.019531c-.019531-.011719-.035156-.023437-.054688-.039062l-.023437-.015625-.179687-.136719-.023438-.015625-.050781-.039062-.03125-.019532-.050781-.039062-.027344-.019532-.050782-.035156-.019531-.015625-.105469-.078125-.027343-.019531-.078125-.058594-.046875-.03125-.039063-.027343-.042968-.03125-.035157-.027344-.066406-.046875-.050781-.039063-.039063-.027344-.046875-.03125-.042968-.027343-.035157-.027344-.046875-.035156-.035156-.023438-.046875-.035156-.042969-.027344c-.019531-.015625-.042968-.035156-.066406-.050781-.015625-.007812-.03125-.019531-.046875-.03125l-.039063-.027344-.042968-.03125-.042969-.027344-.039063-.027343-.039062-.03125-.046875-.03125-.066406-.046875-.046875-.03125-.039063-.03125-.042969-.027344-.039062-.03125-.085938-.054688-.042968-.03125-.039063-.027343-.074219-.054688-.035156-.019531-.050781-.035156-.035156-.027344-.046875-.03125-.039063-.027344-.042969-.03125-.039062-.023437-.054688-.039063-.046874-.03125-.0625-.042968-.082032-.054688-.039062-.027344-.082032-.054687-.082031-.058594c-.03125-.019531-.054687-.039063-.082031-.054687l-.023438-.015626-.0625-.042968-.03125-.019532-.054687-.039062-.03125-.019531-.082031-.054688c-.058594-.039062-.113282-.078125-.171875-.117187l-.023438-.011719-.0625-.042969-.023437-.015625-.066406-.042969-.023438-.015624c-.058594-.039063-.113281-.078126-.171875-.117188l-.011719-.003906-.078125-.050782-.015625-.011718-.070312-.046875-.019532-.011719-.078124-.050781-.007813-.007813c-.058594-.035156-.121094-.074218-.179687-.113281l-.011719-.011719-.074219-.046875-.019531-.011719-.078125-.050781-.007813-.003906c-.089843-.058594-.179687-.117187-.273437-.175781l-.007813-.003906-.082031-.054688-.007812-.003906c-.089844-.058594-.183594-.117188-.277344-.175782-.183594-.117187-.371094-.234374-.558594-.351562-3-1.863281-6.109375-3.535156-9.316406-5.007812-1.519532-.703126-3.175782-1.066407-4.851563-1.066407zm0 0"/></g></svg>